/* XPM */
static char *pageant.xpm[] = {
/* columns rows colors chars-per-pixel */
"32 32 6 1",
"  c black",
". c blue",
"X c #80808000",
"o c #C0C0C000",
"O c gray100",
"+ c None",
/* pixels */
"++++++++++++++++++++++++++++++++",
"++++++++++++++  ++++++++++++++++",
"+++++++++++++    ++   ++++++++++",
"+++++++++++++         ++++++++++",
"++++++++++++          ++++++++++",
"++++++++++++ O        ++++++++++",
"+++++++++++ OOOOO     ++++++++++",
"++            OOOOOOO ++++++++++",
"++                OOO ++++++++++",
"+++++                 ++++++++++",
"++++++++                ++++++++",
"+++++++ ooooo             ++++++",
"++++++ OOOOOOOOOOOO         ++++",
"++++++ O             oX       ++",
"++++++ O ............oXX ++   ++",
"++++++ O ............oXX +++++++",
"++++++ O ............oXX +++++++",
"++++++ O ............oXX +++++++",
"++++++ O ............oXX +++++++",
"++++++ O ............oXX +++++++",
"++++++ O ............oXX +++++++",
"++++++ O ............oXX +++++++",
"++++++ OOOOOOOOOOOOOOoXX   +++++",
"+++++  XXXXXXXXXXXXXXXX XOX ++++",
"++++ o                 XOXX ++++",
"+++ OOOOOOOOOOOOOOOOOOOOoXX ++++",
"+++ OoooooooooooooooooooXXX ++++",
"+++ OooooooooooooX    XoXX +++++",
"+++ XXXXXXXXXXXXXXXXXXXXo ++++++",
"++++                     +++++++",
"++++++++++++++++++++++++++++++++",
"++++++++++++++++++++++++++++++++"
};
