/* XPM */
static char *puttygen[] = {
/* columns rows colors chars-per-pixel */
"32 32 8 1",
"  c black",
". c blue",
"X c #80800000",
"o c yellow",
"O c #80808000",
"+ c #C0C0C000",
"@ c gray100",
"# c None",
/* pixels */
"########################    ####",
"####################### XXXX ###",
"###################### XXXXXX ##",
"##################### XXXXXXXX #",
"#################### XXXXXXXXXX ",
"#                    XX  XX  XX ",
"# XXXXXXXXXXXXXXXXXXXX o X ## X ",
"# XXXXXXXXXXXXXXXXXX  o XX ## X ",
"# XXXXXXXX          oo XXXX  XX ",
"# XX XX XX ####### oo XXXXXXXXX ",
"# XX X  XX #####  oo  XXXXXXXX #",
"# XX  # XX #### ooo ## XXXXXX ##",
"# X #### X ### ooo      XXXX ###",
"#  ######  #  ooooooooo     ####",
"#####       ooooooooo  #########",
"#### +++++++     ooo ###########",
"### @@@@@@@@@@@ ooo ############",
"### @          oo  #############",
"### @ ....... oo  ##############",
"### @ ...... oo O ##############",
"### @ ..... o  OO ##############",
"### @ .... o .+OO ##############",
"### @ ....  ..+OO ##############",
"### @ ........+OO ##############",
"### @@@@@@@@@@+OO   ############",
"##  OOOOOOOOOOOO O@O ###########",
"# +             O@OO ###########",
" @@@@@@@@@@@@@@@@+OO ###########",
" @+++++++++++++++OOO ###########",
" @++++++++O    O+OO ############",
" OOOOOOOOOOOOOOOO+ #############",
"#                 ##############"
};
