/* XPM */
static char *putty.xpm[] = {
/* columns rows colors chars-per-pixel */
"32 32 7 1",
"  c black",
". c blue",
"X c yellow",
"o c #80808000",
"O c #C0C0C000",
"+ c gray100",
"@ c None",
/* pixels */
"@@@@@@@@@@@@@@@@            @@@@",
"@@@@@@@@@@@@@@@ OOOOOOOOOOOo @@@",
"@@@@@@@@@@@@@@ +++++++++++oo @@@",
"@@@@@@@@@@@@@@ +         Ooo @@@",
"@@@@@@@@@@@@@@ + ........Ooo @@@",
"@@@@@@@@@@@@@@ + ....  ..Ooo @@@",
"@@@@@@@@@@@@@@ + ... X ..Ooo @@@",
"@@@@@@@@@@@@@@ + .  X ...Ooo @@@",
"@@@@@@@@@@@@@@ +  XX ....Ooo @@@",
"@@@@@@@@@@@@@@ + XX .....Ooo @@@",
"@@@@@@@@@@@@@@  XX ++++++Ooo   @",
"@@@@@@@@@@@@@ XXX ooooooooo o+o ",
"@@@@@@@@@@@@ XXX           o+oo ",
"@@@@@@@@@@  XXXXXXXXX ++++++Ooo ",
"@@@@@     XXXXXXXXX  OOOOOOOooo ",
"@@@@ OOOOO     XXX OOo    oOoo @",
"@@@ +++++++++ XXX ooooooooooO @@",
"@@@ +        XX              @@@",
"@@@ + ..... XX oo @@@@@@@@@@@@@@",
"@@@ + .... XX Ooo @@@@@@@@@@@@@@",
"@@@ + ... X  .Ooo @@@@@@@@@@@@@@",
"@@@ + .. X ...Ooo @@@@@@@@@@@@@@",
"@@@ + ..  ....Ooo @@@@@@@@@@@@@@",
"@@@ + ........Ooo @@@@@@@@@@@@@@",
"@@@ ++++++++++Ooo   @@@@@@@@@@@@",
"@@  oooooooooooo o+o @@@@@@@@@@@",
"@ O             o+oo @@@@@@@@@@@",
" ++++++++++++++++Ooo @@@@@@@@@@@",
" +OOOOOOOOOOOOOOOooo @@@@@@@@@@@",
" +OOOOOOOOo    oOoo @@@@@@@@@@@@",
" ooooooooooooooooO @@@@@@@@@@@@@",
"@                 @@@@@@@@@@@@@@"
};
