/* XPM */
static char *puttycfg.xpm[] = {
/* columns rows colors chars-per-pixel */
"32 32 8 1",
"  c black",
". c blue",
"X c #80800000",
"o c yellow",
"O c #80808000",
"+ c #C0C0C000",
"@ c gray100",
"# c None",
/* pixels */
"#####  #########            ####",
"#### Xo   ##### +++++++++++O ###",
"##### Xooo ### @@@@@@@@@@@OO ###",
"###### Xoo ### @         +OO ###",
"# ##### oo ### @ ........+OO ###",
" X #### ooo ## @ ....  ..+OO ###",
" Xo ## oooo ## @ ... o ..+OO ###",
"# Xo  oooo ### @ .  o ...+OO ###",
"# Xoooooooo ## @  oo ....+OO ###",
"# XXXoXXXooo # @ oo .....+OO ###",
"##   XX XXooo   oo @@@@@@+OO   #",
"#####  # XXooo oo OOOOOOOOO O@O ",
"######### XXooo            O@OO ",
"########## XXooo oooo @@@@@@+OO ",
"#####     o XXooo o  +++++++OOO ",
"#### +++++   XXooo ++O    O+OO #",
"### @@@@@@@@@ XXooo OOOOOOOO+ ##",
"### @        o XXooo         ###",
"### @ ..... oo  XXooo ##########",
"### @ .... oo +O XXooo #########",
"### @ ... o  .+OO XXooo ########",
"### @ .. o ...+OO  XXooo #######",
"### @ ..  ....+OO # XXooo ######",
"### @ ........+OO ## XXooo #####",
"### @@@@@@@@@@+OO   # XXooo ####",
"##  OOOOOOOOOOOO O@O # XXooo ###",
"# +             O@OO ## XXooo ##",
" @@@@@@@@@@@@@@@@+OO ### XXooo #",
" @+++++++++++++++OOO #### XXooo ",
" @++++++++O    O+OO ###### XXo #",
" OOOOOOOOOOOOOOOO+ ######## X ##",
"#                 ########## ###"
};
